<svg width="230" height="65" viewBox="0 0 230 65" fill="none" xmlns="http://www.w3.org/2000/svg">
<rect width="230" height="65" rx="32.5" fill="#8B6220" style="fill:#8B6220;fill:color(display-p3 0.5446 0.3832 0.1249);fill-opacity:1;"/>
<path d="M98.368 30.66C100.888 36.792 106.208 40.964 113.992 42.476C113.544 42.896 112.956 43.764 112.676 44.324C104.724 42.588 99.432 38.108 96.576 31.22L98.368 30.66ZM108.364 29.876H108.784L109.204 29.792L110.632 30.436C108.084 38.304 101.84 42.392 94.84 44.296C94.616 43.764 94.112 42.952 93.692 42.504C100.244 40.908 106.264 36.988 108.364 30.24V29.876ZM97.752 29.876H108.7V31.892H97.164L97.752 29.876ZM99.684 18.396L102.008 18.76C100.58 29.372 97.304 37.184 89.408 42.028C89.1 41.58 88.344 40.796 87.84 40.404C95.26 35.924 98.452 28.364 99.684 18.396ZM105.816 19.88L107.468 18.9C108.672 20.132 110.296 21.868 111.08 22.904L109.4 24.052C108.616 22.988 107.048 21.196 105.816 19.88ZM91.032 27.356C90.892 26.908 90.556 25.9 90.332 25.396C90.696 25.284 91.032 24.892 91.368 24.276C91.676 23.688 92.768 21.448 93.216 19.292L95.484 19.684C94.784 22.064 93.664 24.556 92.712 26.124V26.152C92.712 26.152 91.032 26.852 91.032 27.356ZM91.032 27.356V25.704L92.432 24.864H113.04V26.88H94C92.236 26.88 91.312 27.048 91.032 27.356ZM123.904 29.596H141.572V31.528H123.904V29.596ZM124.8 23.828H140.732V25.704H124.8V23.828ZM131.408 24.696H133.508V28.896C133.508 32.396 132.556 36.988 125.5 40.152C125.22 39.704 124.576 38.976 124.1 38.612C130.904 35.868 131.408 31.752 131.408 28.868V24.696ZM134.096 30.828C135.16 34.748 137.624 37.352 141.628 38.5C141.152 38.92 140.564 39.732 140.284 40.292C136.056 38.808 133.508 35.784 132.276 31.22L134.096 30.828ZM122.308 29.54V39.452H120.264V31.5H116.344V29.54H122.308ZM122.308 38.528C123.624 40.6 126.116 41.552 129.336 41.692C132.388 41.804 138.688 41.72 141.992 41.496C141.768 42 141.404 43.008 141.32 43.652C138.24 43.764 132.444 43.82 129.336 43.708C125.696 43.568 123.176 42.588 121.384 40.376C120.04 41.58 118.612 42.784 117.1 44.016L115.98 41.86C117.324 40.964 118.976 39.732 120.404 38.528H122.308ZM116.652 20.44L118.192 19.18C120.04 20.356 122.168 22.176 123.12 23.548L121.468 24.92C120.572 23.576 118.472 21.672 116.652 20.44ZM137.064 18.48L139.192 19.208C138.24 20.804 137.092 22.652 136.168 23.828L134.46 23.184C135.328 21.924 136.476 19.908 137.064 18.48ZM125.892 19.32L127.684 18.592C128.804 19.936 129.896 21.784 130.288 23.072L128.384 23.912C128.02 22.652 126.984 20.72 125.892 19.32Z" fill="white" style="fill:white;fill-opacity:1;"/>
</svg>
