<svg width="48" height="48" viewBox="0 0 48 48" fill="none" xmlns="http://www.w3.org/2000/svg">
<g clip-path="url(#clip0_0_243)">
<circle cx="24" cy="24" r="24" fill="black" fill-opacity="0.3" style="fill:black;fill-opacity:0.3;"/>
<path fill-rule="evenodd" clip-rule="evenodd" d="M21.5898 14H26.4103C31.7349 14 36.0513 18.3164 36.0513 23.641C36.0513 31.4744 27.6154 35.0897 21.5898 37.5V33.2821C16.2651 33.2821 11.9487 28.9656 11.9487 23.641C11.9487 18.3164 16.2651 14 21.5898 14ZM19.1 25C19.9285 25 20.6 24.3284 20.6 23.5C20.6 22.6716 19.9285 22 19.1 22C18.2716 22 17.6 22.6716 17.6 23.5C17.6 24.3284 18.2716 25 19.1 25ZM24.1 25C24.9285 25 25.6 24.3284 25.6 23.5C25.6 22.6716 24.9285 22 24.1 22C23.2716 22 22.6 22.6716 22.6 23.5C22.6 24.3284 23.2716 25 24.1 25ZM30.6 23.5C30.6 24.3284 29.9285 25 29.1 25C28.2716 25 27.6 24.3284 27.6 23.5C27.6 22.6716 28.2716 22 29.1 22C29.9285 22 30.6 22.6716 30.6 23.5Z" fill="white" fill-opacity="0.9" style="fill:white;fill-opacity:0.9;"/>
</g>
<defs>
<clipPath id="clip0_0_243">
<rect width="48" height="48" fill="white" style="fill:white;fill-opacity:1;"/>
</clipPath>
</defs>
</svg>
